<svg width="42" height="42" viewBox="0 0 42 42" fill="none" xmlns="http://www.w3.org/2000/svg">
<path d="M21.0208 0.189575C22.6412 0.189674 24.2061 0.779931 25.4229 1.84999L25.7437 2.15208L27.1979 3.60624C27.597 4.00273 28.1181 4.25302 28.677 4.31666L28.9583 4.33333H31.0416C32.7442 4.33323 34.3822 4.98451 35.6199 6.15362C36.8576 7.32272 37.6011 8.92105 37.6979 10.6208L37.7083 11V13.0833C37.7083 13.6458 37.9 14.1937 38.2458 14.6312L38.4333 14.8396L39.8854 16.2937C41.089 17.4905 41.7908 19.1013 41.8477 20.7976C41.9046 22.494 41.3123 24.1482 40.1916 25.4229L39.8895 25.7437L38.4354 27.1979C38.0389 27.597 37.7886 28.1181 37.725 28.6771L37.7083 28.9583V31.0417C37.7084 32.7442 37.0571 34.3823 35.888 35.6199C34.7189 36.8576 33.1206 37.6011 31.4208 37.6979L31.0416 37.7083H28.9583C28.3966 37.7085 27.8513 37.8979 27.4104 38.2458L27.202 38.4333L25.7479 39.8854C24.5511 41.089 22.9403 41.7908 21.244 41.8477C19.5476 41.9046 17.8934 41.3123 16.6187 40.1917L16.2979 39.8896L14.8437 38.4354C14.4446 38.0389 13.9235 37.7886 13.3645 37.725L13.0833 37.7083H11C9.29743 37.7084 7.65937 37.0571 6.4217 35.888C5.18403 34.7189 4.44055 33.1206 4.34371 31.4208L4.3333 31.0417V28.9583C4.33311 28.3966 4.14377 27.8513 3.7958 27.4104L3.6083 27.2021L2.15621 25.7479C0.952633 24.5511 0.250844 22.9404 0.193937 21.244C0.137031 19.5477 0.729293 17.8935 1.84996 16.6187L2.15205 16.2979L3.60621 14.8437C4.0027 14.4447 4.25299 13.9235 4.31663 13.3646L4.3333 13.0833V11L4.34371 10.6208C4.43674 8.98634 5.12793 7.44322 6.28556 6.28559C7.44319 5.12796 8.98631 4.43677 10.6208 4.34374L11 4.33333H13.0833C13.645 4.33314 14.1903 4.1438 14.6312 3.79583L14.8395 3.60833L16.2937 2.15624C16.9132 1.53309 17.6497 1.03854 18.4609 0.701032C19.2722 0.36352 20.1421 0.189702 21.0208 0.189575ZM28.7229 15.3604C28.3322 14.9698 27.8024 14.7504 27.25 14.7504C26.6975 14.7504 26.1677 14.9698 25.777 15.3604L18.9166 22.2187L16.2229 19.5271L16.027 19.3542C15.6083 19.0304 15.082 18.8781 14.5551 18.9283C14.0282 18.9785 13.5401 19.2274 13.1901 19.6244C12.84 20.0214 12.6542 20.5368 12.6703 21.0659C12.6865 21.5949 12.9034 22.098 13.277 22.4729L17.4437 26.6396L17.6395 26.8125C18.0404 27.1234 18.5409 27.2774 19.0472 27.2456C19.5535 27.2138 20.0308 26.9983 20.3895 26.6396L28.7229 18.3062L28.8958 18.1104C29.2067 17.7096 29.3607 17.209 29.3289 16.7027C29.2971 16.1964 29.0816 15.7191 28.7229 15.3604Z" fill="#7367F0"/>
</svg>
